<svg xmlns="http://www.w3.org/2000/svg" width="100mm" height="100mm" viewBox="0 0 100 100"><rect width="100" height="100" rx=".04" ry="0" style="display:inline;fill:none;fill-opacity:1;stroke:none;stroke-width:1;stroke-linecap:round;stroke-linejoin:round;stroke-dasharray:none;stroke-opacity:1"/><path d="M15.2 23.68c7.86 0 9.94-2.63 9.94-9.96 0 7.37 2.58 10.03 10 10.03-7.37 0-10.03 2.4-10.03 9.96 0-7.41-2.04-10.06-9.9-10.03zM21 45.53c7.84 0 9.93-2.63 9.93-9.96 0 7.37 2.58 10.02 10 10.02-7.38 0-10.04 2.4-10.04 9.97 0-7.42-2.03-10.06-9.9-10.03zM42.5 11.94c7.84 0 9.93-2.64 9.93-9.97C52.43 9.35 55 12 62.43 12c-7.38 0-10.04 2.4-10.04 9.96 0-7.41-2.03-10.06-9.9-10.02z" style="font-variation-settings:normal;display:inline;fill:#8088F0;fill-opacity:1;stroke:#8088F0;stroke-width:1.47349;stroke-linecap:round;stroke-linejoin:round;stroke-miterlimit:4;stroke-dasharray:none;stroke-dashoffset:0;stroke-opacity:1;stop-color:#000"/><path d="M72.12 21.12c6.28 0 7.95-2.1 7.95-7.97 0 5.9 2.06 8.02 8 8.02-5.9 0-8.03 1.92-8.03 7.97 0-5.93-1.63-8.05-7.92-8.02z" style="font-variation-settings:normal;display:inline;fill:#8088F0;fill-opacity:1;stroke:#8088F0;stroke-width:1.17879;stroke-linecap:round;stroke-linejoin:round;stroke-miterlimit:4;stroke-dasharray:none;stroke-dashoffset:0;stroke-opacity:1;stop-color:#000"/><path d="M67.3 54.46c7.85 0 9.94-2.64 9.94-9.97 0 7.38 2.58 10.03 10 10.03-7.38 0-10.03 2.4-10.03 9.96 0-7.41-2.04-10.06-9.9-10.02zM2.19 82.54c7.85 0 9.93-2.64 9.93-9.97 0 7.38 2.58 10.03 10 10.03-7.37 0-10.03 2.4-10.03 9.96 0-7.41-2.04-10.06-9.9-10.02zM47.04 68c7.85 0 9.93-2.64 9.93-9.97 0 7.37 2.58 10.02 10 10.02-7.37 0-10.03 2.4-10.03 9.97 0-7.42-2.04-10.06-9.9-10.03z" style="font-variation-settings:normal;display:inline;fill:#8088F0;fill-opacity:1;stroke:#8088F0;stroke-width:1.47349;stroke-linecap:round;stroke-linejoin:round;stroke-miterlimit:4;stroke-dasharray:none;stroke-dashoffset:0;stroke-opacity:1;stop-color:#000"/><path d="M71.4 84.03c10.2 0 12.92-3.43 12.92-12.96 0 9.59 3.35 13.04 12.99 13.04-9.58 0-13.03 3.11-13.03 12.95 0-9.64-2.65-13.08-12.88-13.03z" style="font-variation-settings:normal;display:inline;fill:#8088F0;fill-opacity:1;stroke:#8088F0;stroke-width:1.91554;stroke-linecap:round;stroke-linejoin:round;stroke-miterlimit:4;stroke-dasharray:none;stroke-dashoffset:0;stroke-opacity:1;stop-color:#000"/></svg>