<?xml version="1.0" encoding="UTF-8" standalone="no"?>
<!-- Created with Inkscape (http://www.inkscape.org/) -->

<svg
   width="109.69606mm"
   height="49.584969mm"
   viewBox="0 0 109.69606 49.584969"
   version="1.1"
   id="svg1"
   xml:space="preserve"
   xmlns="http://www.w3.org/2000/svg"
   xmlns:svg="http://www.w3.org/2000/svg"><defs
     id="defs1" /><path
     id="path6-5-4-7-5-6-5"
     style="fill:none;fill-opacity:1;stroke:#043915;stroke-width:0.8;stroke-dasharray:none;stroke-opacity:1"
     d="m 109.60869,47.32982 c 0,0 -5.62213,-1.25836 -8.18411,-5.63496 -0.64404,4.66332 -5.103159,8.97426 -11.672421,5.36663 5.944474,-4.50167 3.303355,-9.52568 2.280817,-10.93451 -2.824637,7.35709 -9.659936,3.68956 -9.659936,3.68956 m 26.90024,3.01873 c 0,0 0.12086,-6.80332 -6.23871,-9.59286 2.41231,4.78709 -1.97043,6.20583 -4.42747,5.70205 4.92302,-11.26854 -14.40602,-15.51984 -13.61782,-2.7504 -0.24737,1.69981 -2.65537,3.62248 -2.7504,3.62248 m 0,-39.2434788 c 0,0 3.43913,1.10432 1.40874,5.43371 -1.81493,3.86998 -0.15571,6.3785798 1.00624,8.1170198 5.484408,8.205424 -2.28082,14.959489 -2.28082,14.959489 M 106.38871,2.8538712 c 0,0 -6.448258,-4.004895 -10.196595,2.48207 -1.537201,-2.22289 -3.244658,-1.92789 -3.823724,-1.81124 5.913607,9.9927998 -0.320775,18.1843798 -3.354142,20.1248588 3.43132,-4.392249 4.124053,-9.551029 2.482065,-12.879909 -1.367228,-2.7718398 -3.607584,-5.7458098 1.341657,-10.0624298 -2.629001,-1.098713 -7.414471,0.79822 -5.903291,5.90329 -0.77171,-0.9887 -2.81748,-1.00624 -2.81748,-1.00624 m 16.4353,8.3853598 c 7.78161,-3.89081 12.72187,9.196319 3.01873,11.068669 0,0 3.85609,-4.018799 0.46958,-8.452439 -2.56323,11.258259 -12.984643,-0.81682 -19.99069,16.301139 0.63349,-10.28291 7.480054,-9.27556 12.251252,-13.238049 4.771198,-3.96249 1.884984,-8.12773 7.336938,-10.5763698 -1.87543,-1.44046 -4.762881,-0.0671 -4.762881,-0.0671 -0.0067,-5.72809 9.971111,-8.522169 10.090971,-3.79294 0.0949,3.74479 -4.18768,1.91462 -4.18768,1.91462 M 102.76624,33.24241 c 0,0 4.11926,0.14544 5.50079,-3.15289 -1.00949,-2.65589 -4.6958,-4.96413 -4.6958,-4.96413 m -21.26527,14.8924 c 0,0 1.17366,3.41699 5.16538,3.21998 -2.30793,1.69361 -1.5098,4.82926 -0.53666,6.10454 -1.44693,-2.42926 -4.6958,-2.28081 -4.6958,-2.28081 m -27.38276,0.26833 c 0,0 5.62213,-1.25836 8.184113,-5.63496 0.644034,4.66332 5.103157,8.97426 11.672418,5.36663 -5.944473,-4.50167 -3.303354,-9.52568 -2.280816,-10.93451 2.824636,7.35709 9.659936,3.68956 9.659936,3.68956 m -26.900236,3.01873 c 0,0 -0.120867,-6.80332 6.238708,-9.59286 -2.412311,4.78709 1.970424,6.20583 4.427468,5.70205 -4.92302,-11.26854 14.40602,-15.51984 13.61782,-2.7504 0.24737,1.69981 2.65537,3.62248 2.7504,3.62248 m 0,-39.2434888 c 0,0 -3.43913,1.10432 -1.40874,5.43371 1.81493,3.86998 0.15571,6.3785798 -1.00624,8.1170198 -5.484409,8.205424 2.28082,14.959489 2.28082,14.959489 M 58.076099,2.8538712 c 0,0 6.44826,-4.004895 10.196597,2.48207 1.537201,-2.22289 3.244658,-1.92789 3.823724,-1.81124 C 66.182813,13.517501 72.417195,21.709081 75.450561,23.64956 72.019242,19.257311 71.326509,14.098531 72.968497,10.769651 74.335724,7.9978112 76.576081,5.0238412 71.62684,0.7072212 c 2.629,-1.098713 7.414471,0.79822 5.903291,5.90329 0.77171,-0.9887 2.81748,-1.00624 2.81748,-1.00624 M 63.91231,13.989631 c -7.781613,-3.89081 -12.721869,9.196319 -3.018729,11.068669 0,0 -3.856095,-4.018799 -0.469583,-8.452439 2.563235,11.258259 12.984646,-0.81682 19.990693,16.301139 -0.63349,-10.28291 -7.480054,-9.27556 -12.251252,-13.238049 -4.771198,-3.96249 -1.884984,-8.12773 -7.336943,-10.5763698 1.875433,-1.44046 4.762886,-0.0671 4.762886,-0.0671 0.0067,-5.72809 -9.971115,-8.522169 -10.09097,-3.79294 -0.09491,3.74479 4.187677,1.91462 4.187677,1.91462 M 61.698573,33.24241 c 0,0 -4.119258,0.14544 -5.500793,-3.15289 1.009486,-2.65589 4.695801,-4.96413 4.695801,-4.96413 m 21.26527,14.8924 c 0,0 -1.17366,3.41699 -5.16538,3.21998 2.30793,1.69361 1.5098,4.82926 0.53666,6.10454 1.44693,-2.42926 4.6958,-2.28081 4.6958,-2.28081 m -27.385993,0.26833 c 0,0 -5.62213,-1.25836 -8.184113,-5.63496 -0.644034,4.66332 -5.103157,8.97425 -11.672418,5.36663 5.944473,-4.50167 3.303354,-9.52568 2.280816,-10.93451 -2.824636,7.35709 -9.659936,3.68956 -9.659936,3.68956 m 26.900236,3.01873 c 0,0 0.120867,-6.80332 -6.238708,-9.59286 2.412311,4.78709 -1.970424,6.20583 -4.427468,5.70205 4.92302,-11.26854 -14.40602,-15.51984 -13.61782,-2.7504 -0.24737,1.69981 -2.65537,3.62248 -2.7504,3.62248 m 0,-39.2434888 c 0,0 3.43913,1.10432 1.40874,5.43371 -1.81493,3.86998 -0.15571,6.3785798 1.00624,8.1170198 5.484409,8.205424 -2.28082,14.959499 -2.28082,14.959499 M 51.619959,2.8538712 c 0,0 -6.44826,-4.004895 -10.196597,2.48207 -1.537201,-2.22289 -3.244658,-1.92789 -3.823724,-1.81124 5.913607,9.9927998 -0.320775,18.1843798 -3.354141,20.1248688 3.431319,-4.392259 4.124052,-9.551039 2.482064,-12.879919 -1.367227,-2.7718398 -3.607584,-5.7458098 1.341657,-10.0624298 -2.629,-1.098713 -7.414471,0.79822 -5.903291,5.90329 -0.77171,-0.9887 -2.81748,-1.00624 -2.81748,-1.00624 m 16.435301,8.3853598 c 7.781613,-3.89081 12.721869,9.196329 3.018729,11.068679 0,0 3.856095,-4.018809 0.469583,-8.452449 -2.563235,11.258259 -12.984646,-0.81682 -19.990693,16.301149 0.63349,-10.28291 7.480054,-9.27556 12.251252,-13.238059 4.771198,-3.96249 1.884984,-8.12773 7.336943,-10.5763698 -1.875433,-1.44046 -4.762886,-0.0671 -4.762886,-0.0671 -0.0067,-5.72809 9.971115,-8.522169 10.09097,-3.79294 0.09491,3.74479 -4.187677,1.91462 -4.187677,1.91462 M 47.997485,33.24242 c 0,0 4.119258,0.14544 5.500793,-3.15289 -1.009486,-2.65589 -4.695801,-4.96413 -4.695801,-4.96413 m -21.26527,14.89239 c 0,0 1.17366,3.41699 5.16538,3.21998 -2.30793,1.69361 -1.5098,4.82926 -0.53666,6.10454 -1.44693,-2.42926 -4.6958,-2.28081 -4.6958,-2.28081 M 0.08736683,47.32983 c 0,0 5.62212997,-1.25836 8.18411297,-5.63496 0.644034,4.66332 5.1031572,8.97426 11.6724182,5.36663 -5.944473,-4.50167 -3.303354,-9.52568 -2.280816,-10.93451 2.824636,7.35709 9.659936,3.68956 9.659936,3.68956 M 0.42278183,42.83528 c 0,0 -0.120867,-6.80332 6.23870797,-9.59286 -2.412311,4.78709 1.970424,6.20583 4.4274682,5.70205 -4.9230202,-11.26854 14.40602,-15.51984 13.61782,-2.7504 0.24737,1.69981 2.65537,3.62248 2.7504,3.62248 m 0,-39.2434888 c 0,0 -3.43913,1.10432 -1.40874,5.43371 1.81493,3.86998 0.15571,6.3785798 -1.00624,8.1170198 -5.484409,8.205424 2.28082,14.959499 2.28082,14.959499 M 3.3073458,2.8538712 c 0,0 6.44826,-4.004895 10.1965972,2.48207 1.537201,-2.22289 3.244658,-1.92789 3.823724,-1.81124 C 11.41406,13.517501 17.648442,21.709081 20.681808,23.64957 17.250489,19.257311 16.557756,14.098531 18.199744,10.769651 19.566971,7.9978112 21.807328,5.0238412 16.858087,0.7072212 c 2.629,-1.098713 7.414471,0.79822 5.903291,5.90329 0.77171,-0.9887 2.81748,-1.00624 2.81748,-1.00624 M 9.1435568,13.989631 c -7.781613,-3.89081 -12.721869,9.196329 -3.018729,11.068679 0,0 -3.856095,-4.018809 -0.469583,-8.452449 C 8.2184798,27.86412 18.639891,15.789041 25.645938,32.90701 25.012448,22.6241 18.165884,23.63145 13.394686,19.668951 8.6234878,15.706461 11.509702,11.541221 6.0577428,9.0925812 c 1.875433,-1.44046 4.7628862,-0.0671 4.7628862,-0.0671 0.0067,-5.72809 -9.97111517,-8.522169 -10.09097017,-3.79294 -0.09491,3.74479 4.18767697,1.91462 4.18767697,1.91462 M 6.9298198,33.24242 c 0,0 -4.119258,0.14544 -5.500793,-3.15289 1.009486,-2.65589 4.695801,-4.96413 4.695801,-4.96413 M 27.390098,40.01779 c 0,0 -1.17366,3.41699 -5.16538,3.21998 2.30793,1.69361 1.5098,4.82926 0.53666,6.10454 1.44693,-2.42926 4.6958,-2.28081 4.6958,-2.28081" /></svg>
